<svg width="120" height="127" viewBox="0 0 120 127" fill="none" xmlns="http://www.w3.org/2000/svg">
<path opacity="0.1" d="M64.4523 127V80.6174C64.4523 59.2667 69.0501 41.5971 78.2457 27.6087C87.8091 13.6203 101.602 4.41738 119.626 0V19.3261C108.591 22.271 100.683 27.7927 95.9012 35.8913C91.1195 43.6217 88.3608 53.7449 87.6252 66.2609H108.591V127H64.4523ZM0 127V80.6174C0 59.2667 4.5978 41.5971 13.7934 27.6087C23.3568 13.6203 37.1502 4.41738 55.1736 0V19.3261C44.1388 22.271 36.2306 27.7927 31.4489 35.8913C26.6672 43.6217 23.9085 53.7449 23.1729 66.2609H44.1388V127H0Z" fill="#3FF4C7"/>
</svg>
