<svg width="121" height="128" viewBox="0 0 121 128" fill="none" xmlns="http://www.w3.org/2000/svg">
<path opacity="0.1" d="M55.4577 128V81.2522C55.4577 59.7333 50.8362 41.9246 41.5932 27.8261C31.9805 13.7275 18.116 4.45216 -0.00024153 0V19.4782C11.0913 22.4464 19.0403 28.0116 23.8467 36.1739C28.653 43.9652 31.4259 54.1681 32.1654 66.7826H11.0914V128H55.4577ZM120.242 128V81.2522C120.242 59.7333 115.621 41.9246 106.378 27.8261C96.765 13.7275 82.9005 4.45216 64.7842 0V19.4782C75.8758 22.4464 83.8248 28.0116 88.6312 36.1739C93.4375 43.9652 96.2104 54.1681 96.9498 66.7826H75.8758V128H120.242Z" fill="#3FF4C7"/>
</svg>
