<svg width="215" height="44" viewBox="0 0 215 44" fill="none" xmlns="http://www.w3.org/2000/svg">
<path d="M42.4754 23.7377C42.1661 20.2649 41.6565 19.5886 41.464 19.3342C41.0214 18.7464 40.3133 18.3623 39.5639 17.9592C39.5215 17.9368 39.4849 17.9049 39.457 17.8659C39.4291 17.8269 39.4106 17.782 39.403 17.7347C39.3954 17.6873 39.399 17.6389 39.4133 17.5931C39.4276 17.5474 39.4524 17.5056 39.4857 17.4711C39.6245 17.3304 39.7311 17.1612 39.7983 16.9754C39.8655 16.7895 39.8917 16.5912 39.875 16.3943C39.8427 16.0451 39.6803 15.7207 39.42 15.4856C39.1597 15.2505 38.8206 15.1218 38.4699 15.125H37.1293C37.0718 15.1253 37.0144 15.1291 36.9574 15.1362C36.9183 15.1192 36.8777 15.1057 36.8362 15.0958C36.0422 13.4174 34.9551 11.1195 32.7018 9.99797C29.3597 8.33594 23.2031 8.25 22 8.25C20.7969 8.25 14.6403 8.33594 11.3025 9.99539C9.0492 11.1169 7.96209 13.4148 7.16802 15.0932L7.16115 15.107C7.12154 15.1125 7.08265 15.1223 7.04513 15.1362C6.98811 15.1291 6.93072 15.1253 6.87326 15.125H5.53005C5.17934 15.1218 4.84022 15.2505 4.57996 15.4856C4.31969 15.7207 4.1573 16.0451 4.12498 16.3943C4.10971 16.5908 4.13705 16.7883 4.20513 16.9732C4.27321 17.1582 4.38042 17.3262 4.51943 17.4659C4.55269 17.5005 4.57747 17.5422 4.59181 17.588C4.60616 17.6337 4.60968 17.6822 4.60209 17.7295C4.59451 17.7768 4.57603 17.8218 4.54811 17.8607C4.5202 17.8997 4.4836 17.9317 4.44123 17.9541C3.69185 18.3597 2.98029 18.7438 2.54115 19.3291C2.34865 19.5869 1.8399 20.2598 1.52966 23.7325C1.35779 25.6867 1.33201 27.7097 1.46693 29.0125C1.74966 31.7195 2.2799 33.3558 2.30224 33.4237C2.38361 33.6707 2.53338 33.8896 2.73417 34.055C2.93496 34.2203 3.17854 34.3253 3.43662 34.3578V34.375C3.43662 34.7397 3.58148 35.0894 3.83935 35.3473C4.09721 35.6051 4.44694 35.75 4.81162 35.75H9.62412C9.98879 35.75 10.3385 35.6051 10.5964 35.3473C10.8543 35.0894 10.9991 34.7397 10.9991 34.375C11.739 34.375 12.2538 34.2427 12.7995 34.1017C13.5874 33.8895 14.3927 33.7483 15.2058 33.6798C17.8277 33.4297 20.4351 33.3438 22 33.3438C23.5331 33.3438 26.2556 33.4297 28.8819 33.6798C29.6982 33.7483 30.5066 33.8901 31.2976 34.1034C31.8201 34.2375 32.3159 34.3612 33.0026 34.3741C33.0026 34.7388 33.1474 35.0886 33.4053 35.3464C33.6631 35.6043 34.0129 35.7491 34.3776 35.7491H39.1901C39.5547 35.7491 39.9045 35.6043 40.1623 35.3464C40.4202 35.0886 40.5651 34.7388 40.5651 34.3741V34.3638C40.8237 34.332 41.0681 34.2272 41.2695 34.0619C41.471 33.8965 41.6213 33.6772 41.7029 33.4297C41.7252 33.3618 42.2554 31.7255 42.5382 29.0185C42.6731 27.7148 42.649 25.6953 42.4754 23.7377ZM9.65334 16.2688C10.3408 14.8079 11.1272 13.1545 12.5271 12.4575C14.5501 11.4503 18.7429 10.9966 22 10.9966C25.257 10.9966 29.4499 11.4469 31.4729 12.4575C32.8728 13.1545 33.6557 14.8087 34.3466 16.2688L34.4326 16.4553C34.4828 16.5615 34.505 16.6787 34.4971 16.7959C34.4891 16.9131 34.4513 17.0263 34.3872 17.1247C34.3231 17.2231 34.2348 17.3035 34.1308 17.3581C34.0268 17.4127 33.9106 17.4398 33.7932 17.4367C30.9375 17.3594 24.9219 17.1119 22 17.1119C19.0781 17.1119 13.0625 17.3654 10.2025 17.4427C10.0851 17.4458 9.96881 17.4187 9.86483 17.3641C9.76084 17.3095 9.67258 17.2292 9.60846 17.1308C9.54435 17.0323 9.50651 16.9191 9.49857 16.8019C9.49063 16.6848 9.51285 16.5675 9.5631 16.4613C9.59318 16.3977 9.62498 16.3333 9.65334 16.2688ZM10.6786 23.112C9.20028 23.29 7.71253 23.3778 6.22357 23.375C5.31263 23.375 4.37334 23.1172 4.19888 22.3059C4.07943 21.7602 4.09232 21.4534 4.15677 21.1449C4.21091 20.8828 4.29685 20.692 4.72654 20.625C5.84373 20.4531 6.46849 20.6688 8.29724 21.2077C9.50982 21.5643 10.3847 22.0395 10.8831 22.4159C11.1332 22.6016 11 23.0863 10.6786 23.112ZM29.7034 30.1589C28.5725 30.2878 26.3106 30.2405 22.0258 30.2405C17.7409 30.2405 15.4799 30.2878 14.349 30.1589C13.1819 30.0291 11.6944 28.9257 12.7101 27.9426C13.3865 27.2946 14.9643 26.8099 17.0654 26.5375C19.1666 26.2651 20.0561 26.125 22.0172 26.125C23.9783 26.125 24.7775 26.2109 26.9689 26.5384C29.1603 26.8658 30.8163 27.3565 31.3242 27.9434C32.2506 28.9953 30.8696 30.0223 29.7034 30.1641V30.1589ZM39.8011 22.3051C39.6292 23.1198 38.6839 23.3741 37.7764 23.3741C36.2589 23.3745 34.7427 23.2867 33.2354 23.1112C32.9725 23.0862 32.8504 22.6248 33.1169 22.4151C33.6076 22.0292 34.4919 21.5634 35.7027 21.2068C37.5315 20.668 38.5859 20.4523 39.4917 20.6319C39.7126 20.6757 39.8294 20.9129 39.8432 21.0616C39.9039 21.4755 39.8896 21.897 39.8011 22.3059V22.3051Z" fill="#10B981"/>
<path d="M69.17 33.57C67.23 33.57 65.59 33.26 64.25 32.64C62.93 32.02 61.92 31.17 61.22 30.09C60.52 28.99 60.17 27.75 60.17 26.37H64.34C64.34 26.95 64.5 27.52 64.82 28.08C65.14 28.62 65.65 29.06 66.35 29.4C67.07 29.74 68.01 29.91 69.17 29.91C70.21 29.91 71.08 29.76 71.78 29.46C72.48 29.16 73 28.77 73.34 28.29C73.68 27.79 73.85 27.23 73.85 26.61C73.85 25.83 73.52 25.21 72.86 24.75C72.2 24.27 71.18 23.97 69.8 23.85L67.88 23.7C65.78 23.52 64.1 22.87 62.84 21.75C61.6 20.61 60.98 19.11 60.98 17.25C60.98 15.85 61.31 14.65 61.97 13.65C62.63 12.63 63.55 11.85 64.73 11.31C65.93 10.75 67.33 10.47 68.93 10.47C70.59 10.47 72.02 10.76 73.22 11.34C74.42 11.92 75.35 12.74 76.01 13.8C76.67 14.84 77 16.07 77 17.49H72.83C72.83 16.89 72.68 16.34 72.38 15.84C72.1 15.32 71.67 14.91 71.09 14.61C70.53 14.29 69.81 14.13 68.93 14.13C68.09 14.13 67.39 14.27 66.83 14.55C66.27 14.83 65.85 15.21 65.57 15.69C65.29 16.17 65.15 16.69 65.15 17.25C65.15 17.93 65.4 18.53 65.9 19.05C66.4 19.55 67.19 19.84 68.27 19.92L70.19 20.1C71.75 20.22 73.12 20.55 74.3 21.09C75.48 21.63 76.39 22.36 77.03 23.28C77.69 24.2 78.02 25.31 78.02 26.61C78.02 27.99 77.66 29.21 76.94 30.27C76.22 31.31 75.19 32.12 73.85 32.7C72.53 33.28 70.97 33.57 69.17 33.57ZM90.9448 33.57C88.9048 33.57 87.1848 33.18 85.7848 32.4C84.3848 31.62 83.3148 30.53 82.5748 29.13C81.8548 27.71 81.4948 26.05 81.4948 24.15V11.1H85.7548V24.39C85.7548 25.43 85.9548 26.35 86.3548 27.15C86.7548 27.93 87.3348 28.54 88.0948 28.98C88.8748 29.4 89.8248 29.61 90.9448 29.61C92.0448 29.61 92.9748 29.4 93.7348 28.98C94.5148 28.54 95.0948 27.93 95.4748 27.15C95.8748 26.37 96.0748 25.45 96.0748 24.39V11.1H100.335V24.15C100.335 26.05 99.9748 27.71 99.2548 29.13C98.5548 30.53 97.5048 31.62 96.1048 32.4C94.7048 33.18 92.9848 33.57 90.9448 33.57ZM105.323 33V10.95H109.583V33H105.323ZM118.703 33L111.983 23.46H116.753L123.683 33H118.703ZM108.323 25.68V22.23H113.903C114.683 22.23 115.353 22.07 115.913 21.75C116.493 21.43 116.943 20.98 117.263 20.4C117.583 19.82 117.743 19.16 117.743 18.42C117.743 17.66 117.583 16.99 117.263 16.41C116.943 15.83 116.493 15.38 115.913 15.06C115.353 14.74 114.683 14.58 113.903 14.58H108.323V10.95H113.453C115.213 10.95 116.733 11.21 118.013 11.73C119.313 12.25 120.313 13.04 121.013 14.1C121.713 15.16 122.063 16.49 122.063 18.09V18.57C122.063 20.19 121.703 21.52 120.983 22.56C120.283 23.6 119.293 24.38 118.013 24.9C116.733 25.42 115.213 25.68 113.453 25.68H108.323ZM126.915 33V11.1H131.085V33H126.915ZM130.485 33V29.4H140.415V33H130.485ZM130.485 23.67V20.07H139.635V23.67H130.485ZM130.485 14.7V11.1H140.175V14.7H130.485ZM144.786 33V10.95H149.046V33H144.786ZM158.166 33L151.446 23.46H156.216L163.146 33H158.166ZM147.786 25.68V22.23H153.366C154.146 22.23 154.816 22.07 155.376 21.75C155.956 21.43 156.406 20.98 156.726 20.4C157.046 19.82 157.206 19.16 157.206 18.42C157.206 17.66 157.046 16.99 156.726 16.41C156.406 15.83 155.956 15.38 155.376 15.06C154.816 14.74 154.146 14.58 153.366 14.58H147.786V10.95H152.916C154.676 10.95 156.196 11.21 157.476 11.73C158.776 12.25 159.776 13.04 160.476 14.1C161.176 15.16 161.526 16.49 161.526 18.09V18.57C161.526 20.19 161.166 21.52 160.446 22.56C159.746 23.6 158.756 24.38 157.476 24.9C156.196 25.42 154.676 25.68 152.916 25.68H147.786ZM166.438 33V11.1H170.698V33H166.438ZM179.823 33.12V29.16H184.353C185.493 29.16 186.503 28.99 187.383 28.65C188.283 28.29 189.043 27.79 189.663 27.15C190.283 26.51 190.753 25.76 191.073 24.9C191.413 24.02 191.583 23.05 191.583 21.99C191.583 20.89 191.413 19.91 191.073 19.05C190.753 18.17 190.283 17.42 189.663 16.8C189.043 16.18 188.283 15.71 187.383 15.39C186.503 15.07 185.493 14.91 184.353 14.91H179.823V10.95H184.083C186.063 10.95 187.793 11.24 189.273 11.82C190.753 12.4 191.983 13.2 192.963 14.22C193.943 15.22 194.673 16.37 195.153 17.67C195.653 18.95 195.903 20.28 195.903 21.66V22.32C195.903 23.64 195.653 24.94 195.153 26.22C194.673 27.5 193.943 28.66 192.963 29.7C191.983 30.74 190.753 31.57 189.273 32.19C187.793 32.81 186.063 33.12 184.083 33.12H179.823ZM176.163 33.12V10.95H180.423V33.12H176.163ZM199.718 33V11.1H203.888V33H199.718ZM203.288 33V29.4H213.218V33H203.288ZM203.288 23.67V20.07H212.438V23.67H203.288ZM203.288 14.7V11.1H212.978V14.7H203.288Z" fill="#10B981"/>
</svg>
