<svg width="24" height="20" viewBox="0 0 24 20" fill="none" xmlns="http://www.w3.org/2000/svg">
<path d="M23 6H21.421C20.978 6 20.588 6.29198 20.462 6.71602L19.49 10H19.382L18.95 8.688C18.814 8.277 18.432 8 18 8H16V6.99999C16 6.44799 15.553 6 15 6H13V5.00002H14C14.553 5.00002 15 4.55203 15 4.00003V0.99998C15 0.44798 14.553 0 14 0H6C5.44702 0 5.00002 0.44798 5.00002 0.99998V3.99998C5.00002 4.55198 5.44702 4.99997 6 4.99997H6.99998V5.99995H3.99998C3.447 6 3 6.44799 3 6.99999V11H2.00002V10C2.00002 9.448 1.55302 9 1.00003 9C0.447 9 0 9.448 0 10V14C0 14.552 0.447 15 0.999984 15C1.55297 15 1.99997 14.552 1.99997 14V13H3V15C3 15.148 3.033 15.294 3.09698 15.428L4.518 18.428C4.683 18.777 5.034 19 5.421 19H17.474C17.827 19 18.154 18.813 18.334 18.51L19.229 17.0001H19.557L20.49 19.3671C20.642 19.749 21.011 20.0001 21.421 20.0001H23C23.553 20.0001 24 19.5521 24 19.0001V6.99999C24 6.44799 23.553 6 23 6Z" fill="white"/>
</svg>
