<svg width="28" height="28" viewBox="0 0 28 28" fill="none" xmlns="http://www.w3.org/2000/svg">
<mask id="mask0_44_1106" style="mask-type:luminance" maskUnits="userSpaceOnUse" x="0" y="0" width="28" height="28">
<path d="M28 0H0V28H28V0Z" fill="white"/>
</mask>
<g mask="url(#mask0_44_1106)">
<path d="M23.8995 4.10047C21.2553 1.45622 17.7395 0 14 0C10.2605 0 6.74477 1.45622 4.10047 4.10047C1.45622 6.74477 0 10.2604 0 14C0 17.7396 1.45622 21.2553 4.10047 23.8995C6.74477 26.5438 10.2605 28 14 28C17.7395 28 21.2553 26.5438 23.8995 23.8995C26.5438 21.2553 28 17.7396 28 14C28 10.2604 26.5438 6.74477 23.8995 4.10047ZM14.913 20.7936H13.087V14.913H8.28248V20.7936H6.4564V7.20634H8.28248V13.087H13.087V7.20639H14.913V13.087H19.7176V7.20639H21.5437V14.913H14.913V20.7936ZM21.235 20.5116L20.5608 19.4229H20.1962V20.5116H19.2222V16.9658H20.8504C21.5445 16.9658 22.0439 17.5901 22.0439 18.1944C22.0439 18.6039 21.8542 18.9834 21.5346 19.2081L22.3336 20.5116H21.235Z" fill="white"/>
<path d="M20.7857 17.8145H20.1963V18.5736H20.8107C20.9306 18.5736 21.0554 18.4337 21.0554 18.1941C21.0553 17.9493 20.9054 17.8145 20.7857 17.8145Z" fill="white"/>
</g>
</svg>
